# xmcd CD database file
#
# Track frame offsets:
#	150
#	26222
#	62908
#	89179
#	103680
#	133061
#	169276
#	186492
#	209544
#	225361
#	246337
#	260345
#	283698
#	298582
#	315444
#
# Disc length: 4423 seconds
#
# Revision: 0
# Processed by: cddbd v1.5.1PL2 Copyright (c) Steve Scherf et al.
# Submitted via: CDex 1.51
#
DISCID=ed11450f
DTITLE=Windmill Saxophone Quartet - This'n'That
DYEAR=1998
DGENRE=Jazz
TTITLE0=Invitation
TTITLE1=That
TTITLE2=See
TTITLE3=Soldier's Thing
TTITLE4=The Noon
TTITLE5=Be-Bop
TTITLE6=I Am The Walrus
TTITLE7=This
TTITLE8=Lush Life
TTITLE9=Just Like That
TTITLE10=Off-White Rhapsody
TTITLE11=With
TTITLE12=Naima
TTITLE13=Perennial Abuse
TTITLE14=Burning Down the House
EXTD=YEAR: 1998
EXTT0=
EXTT1=
EXTT2=
EXTT3=
EXTT4=
EXTT5=
EXTT6=
EXTT7=
EXTT8=
EXTT9=
EXTT10=
EXTT11=
EXTT12=
EXTT13=
EXTT14=
PLAYORDER=
